<svg width="40" height="33" viewBox="0 0 40 33" fill="none" xmlns="http://www.w3.org/2000/svg">
<path d="M39.9216 4.20451C38.4466 4.85282 36.8717 5.29447 35.2134 5.49613C36.9033 4.47783 38.2033 2.8729 38.8183 0.957982C37.2333 1.88294 35.4767 2.55625 33.6068 2.93123C32.1135 1.33297 29.9853 0.333008 27.6221 0.333008C23.0939 0.333008 19.4224 4.00452 19.4224 8.52767C19.4224 9.17764 19.4974 9.80261 19.6341 10.4009C12.8177 10.0793 6.77626 6.80607 2.7331 1.85794C2.02146 3.06123 1.62314 4.4595 1.62314 5.98277C1.62314 8.83265 3.07308 11.3375 5.26966 12.8092C3.92471 12.7658 2.65977 12.3958 1.55648 11.7825V11.8842C1.55648 15.859 4.37803 19.1739 8.13287 19.9289C7.44457 20.1138 6.71793 20.2138 5.97296 20.2138C5.44965 20.2138 4.94801 20.1638 4.44636 20.0705C5.49798 23.3254 8.52119 25.6986 12.1194 25.7653C9.31949 27.9635 5.7713 29.2735 1.9498 29.2735C1.29982 29.2735 0.651517 29.2351 -0.00012207 29.1618C3.64806 31.485 7.94621 32.8433 12.5944 32.8433C27.6837 32.8433 35.925 20.3505 35.925 9.53429C35.925 9.18597 35.925 8.83432 35.9001 8.48433C37.5016 7.33605 38.8999 5.88444 39.9999 4.23785L39.9216 4.20451Z" fill="#00283A"/>
</svg>
