<svg width="40" height="29" viewBox="0 0 40 29" fill="none" xmlns="http://www.w3.org/2000/svg">
<path d="M39.1502 4.98153C38.9185 4.15113 38.4764 3.39456 37.8668 2.78494C37.2572 2.17533 36.5006 1.73328 35.6702 1.50153C32.5536 0.666528 20.0102 0.666528 20.0102 0.666528C20.0102 0.666528 7.49857 0.649861 4.35024 1.50153C3.51984 1.73328 2.76327 2.17533 2.15365 2.78494C1.54404 3.39456 1.10199 4.15113 0.870238 4.98153C0.279439 8.17238 -0.0118278 11.4115 0.000237917 14.6565C-0.00954686 17.8893 0.28171 21.116 0.870238 24.2949C1.10199 25.1253 1.54404 25.8818 2.15365 26.4914C2.76327 27.1011 3.51984 27.5431 4.35024 27.7749C7.46357 28.6115 20.0102 28.6115 20.0102 28.6115C20.0102 28.6115 32.5202 28.6115 35.6702 27.7749C36.5006 27.5431 37.2572 27.1011 37.8668 26.4914C38.4764 25.8818 38.9185 25.1253 39.1502 24.2949C39.7265 21.1149 40.0055 17.8882 39.9836 14.6565C40.0077 11.4126 39.7287 8.17353 39.1502 4.98153ZM16.0069 20.6415V8.65319L26.4469 14.6565L16.0069 20.6415Z" fill="#00283A"/>
</svg>
