<svg width="26" height="32" viewBox="0 0 26 32" fill="none" xmlns="http://www.w3.org/2000/svg">
<path d="M25.8655 22.2318C25.7598 22.0683 25.5878 21.9592 25.3948 21.9331C22.856 21.6015 21.0667 19.2746 21.3984 16.7358C21.6326 14.9424 22.8883 13.4491 24.6149 12.9105C24.9655 12.7981 25.1587 12.4228 25.0463 12.0722C25.0288 12.0177 25.0044 11.9655 24.9736 11.9172C23.8085 9.81455 21.737 8.3685 19.3616 7.99988C18.1646 8.057 16.985 8.30969 15.8697 8.74787C15.0686 9.07024 14.2227 9.26768 13.3617 9.33318C12.5006 9.26768 11.6548 9.07024 10.8537 8.74787C9.73835 8.30969 8.55873 8.057 7.36175 7.99988C4.87246 7.99988 0.0285034 11.5292 0.0285034 17.9998C0.0285034 24.149 4.51377 31.9996 8.02843 31.9996C9.36948 32.0116 10.6944 31.7065 11.8951 31.109C12.3473 30.8596 12.8471 30.7087 13.3618 30.6663C13.8764 30.7087 14.3762 30.8596 14.8284 31.109C16.0291 31.7065 17.354 32.0116 18.6951 31.9996C21.4817 31.9996 24.627 27.2157 25.9443 22.7824C25.9994 22.5962 25.9707 22.3951 25.8655 22.2318Z" fill="white"/>
<path d="M12.6949 7.99992C16.7431 7.99548 20.0238 4.71489 20.0281 0.666681C20.0281 0.298497 19.7297 0 19.3615 0C15.3133 0.00443746 12.0326 3.28503 12.0283 7.33324C12.0282 7.70143 12.3267 7.99992 12.6949 7.99992Z" fill="white"/>
</svg>
