<svg width="40" height="40" viewBox="0 0 40 40" fill="none" xmlns="http://www.w3.org/2000/svg">
<path d="M19.9999 26.6667C16.3165 26.6667 13.3332 23.6833 13.3332 20C13.3332 16.3167 16.3165 13.3333 19.9999 13.3333C23.6832 13.3333 26.6665 16.3167 26.6665 20C26.6665 23.6833 23.6832 26.6667 19.9999 26.6667Z" fill="#00283A"/>
<path fill-rule="evenodd" clip-rule="evenodd" d="M19.9999 0C14.5665 0 13.8882 0.025 11.7549 0.12C9.62488 0.22 8.17488 0.555 6.89988 1.05C5.58488 1.56 4.46821 2.245 3.35654 3.35667C2.24488 4.46833 1.55821 5.58333 1.04988 6.9C0.554878 8.175 0.218211 9.625 0.119878 11.755C0.0198779 13.8883 -0.00012207 14.5667 -0.00012207 20C-0.00012207 25.4333 0.0248779 26.1117 0.119878 28.245C0.219878 30.3733 0.554878 31.825 1.04988 33.1C1.55988 34.4133 2.24488 35.5317 3.35654 36.6433C4.46821 37.7533 5.58321 38.4417 6.89988 38.95C8.17654 39.4433 9.62654 39.7817 11.7549 39.88C13.8882 39.98 14.5665 40 19.9999 40C25.4332 40 26.1115 39.975 28.2449 39.88C30.3732 39.78 31.8249 39.4433 33.0999 38.95C34.4132 38.44 35.5315 37.7533 36.6432 36.6433C37.7532 35.5317 38.4415 34.4183 38.9499 33.1C39.4432 31.825 39.7815 30.3733 39.8799 28.245C39.9799 26.1117 39.9999 25.4333 39.9999 20C39.9999 14.5667 39.9749 13.8883 39.8799 11.755C39.7799 9.62667 39.4432 8.17333 38.9499 6.9C38.4399 5.585 37.7532 4.46833 36.6432 3.35667C35.5315 2.245 34.4182 1.55833 33.0999 1.05C31.8249 0.555 30.3732 0.218333 28.2449 0.12C26.1115 0.02 25.4332 0 19.9999 0ZM19.9999 3.6C25.3382 3.6 25.9749 3.62667 28.0832 3.71833C30.0332 3.81 31.0915 4.13333 31.7949 4.41C32.7315 4.77167 33.3949 5.205 34.0982 5.90333C34.7965 6.60333 35.2299 7.26833 35.5915 8.205C35.8649 8.90833 36.1915 9.96667 36.2799 11.9167C36.3749 14.0267 36.3965 14.66 36.3965 20C36.3965 25.34 36.3715 25.975 36.2732 28.0833C36.1715 30.0333 35.8465 31.0917 35.5715 31.795C35.1982 32.7317 34.7732 33.395 34.0732 34.0983C33.3749 34.7967 32.6999 35.23 31.7732 35.5917C31.0732 35.865 29.9982 36.1917 28.0482 36.28C25.9249 36.375 25.2999 36.3967 19.9499 36.3967C14.5982 36.3967 13.9732 36.3717 11.8515 36.2733C9.89988 36.1717 8.82488 35.8467 8.12488 35.5717C7.17654 35.1983 6.52488 34.7733 5.82654 34.0733C5.12488 33.375 4.67654 32.7 4.32654 31.7733C4.05154 31.0733 3.72821 29.9983 3.62654 28.0483L3.62254 27.9362C3.55059 25.9235 3.52488 25.2041 3.52488 19.975C3.52488 14.7511 3.55053 14.0252 3.62226 11.9948L3.62654 11.8733C3.72821 9.92333 4.05154 8.85 4.32654 8.15C4.67654 7.2 5.12488 6.55 5.82654 5.84833C6.52488 5.15 7.17654 4.7 8.12488 4.35167C8.82488 4.075 9.87654 3.75 11.8265 3.65L11.9228 3.6466C13.9717 3.57424 14.6582 3.55 19.9249 3.55L19.9999 3.6Z" fill="#00283A"/>
<path fill-rule="evenodd" clip-rule="evenodd" d="M19.9999 3.6C25.3382 3.6 25.9749 3.62667 28.0832 3.71833C30.0332 3.81 31.0915 4.13333 31.7949 4.41C32.7315 4.77167 33.3949 5.205 34.0982 5.90333C34.7965 6.60333 35.2299 7.26833 35.5915 8.205C35.8649 8.90833 36.1915 9.96667 36.2799 11.9167C36.3749 14.0267 36.3965 14.66 36.3965 20C36.3965 25.34 36.3715 25.975 36.2732 28.0833C36.1715 30.0333 35.8465 31.0917 35.5715 31.795C35.1982 32.7317 34.7732 33.395 34.0732 34.0983C33.3749 34.7967 32.6999 35.23 31.7732 35.5917C31.0732 35.865 29.9982 36.1917 28.0482 36.28C25.9249 36.375 25.2999 36.3967 19.9499 36.3967C14.5982 36.3967 13.9732 36.3717 11.8515 36.2733C9.89988 36.1717 8.82488 35.8467 8.12488 35.5717C7.17654 35.1983 6.52488 34.7733 5.82654 34.0733C5.12488 33.375 4.67654 32.7 4.32654 31.7733C4.05154 31.0733 3.72821 29.9983 3.62654 28.0483L3.62254 27.9362C3.55059 25.9235 3.52488 25.2041 3.52488 19.975C3.52488 14.7511 3.55053 14.0252 3.62226 11.9948L3.62654 11.8733C3.72821 9.92333 4.05154 8.85 4.32654 8.15C4.67654 7.2 5.12488 6.55 5.82654 5.84833C6.52488 5.15 7.17654 4.7 8.12488 4.35167C8.82488 4.075 9.87654 3.75 11.8265 3.65L11.9228 3.6466C13.9717 3.57424 14.6582 3.55 19.9249 3.55L19.9999 3.6ZM9.72988 20C9.72988 14.33 14.3249 9.73 19.9999 9.73C25.6699 9.73 30.2699 14.325 30.2699 20C30.2699 25.67 25.6749 30.27 19.9999 30.27C14.3299 30.27 9.72988 25.675 9.72988 20ZM30.6765 11.725C31.9999 11.725 33.0765 10.65 33.0765 9.325C33.0765 8.00167 31.9982 6.925 30.6765 6.92667C29.3532 6.92667 28.2765 8.00167 28.2765 9.325C28.2765 10.6483 29.3515 11.725 30.6765 11.725Z" fill="#00283A"/>
</svg>
