<svg width="32" height="32" viewBox="0 0 32 32" fill="none" xmlns="http://www.w3.org/2000/svg">
<path d="M4.66962 10.6716C3.56532 10.6716 2.67009 11.5669 2.67009 12.6712V22.0023C2.67009 23.1066 3.56532 24.0018 4.66962 24.0018C5.77392 24.0018 6.66915 23.1066 6.66915 22.0023V12.6712C6.66915 11.5669 5.77392 10.6716 4.66962 10.6716Z" fill="white"/>
<path d="M27.331 10.6716C26.2267 10.6716 25.3315 11.5669 25.3315 12.6712V22.0023C25.3315 23.1066 26.2267 24.0018 27.331 24.0018C28.4353 24.0018 29.3306 23.1066 29.3306 22.0023V12.6712C29.3306 11.5669 28.4354 10.6716 27.331 10.6716Z" fill="white"/>
<path d="M23.3319 10.6716H8.66868C8.30058 10.6716 8.00215 10.9701 8.00215 11.3382V22.0023C8.00184 23.5862 9.11632 24.9514 10.6682 25.2682V30.0004C10.6682 31.1047 11.5634 31.9999 12.6677 31.9999C13.772 31.9999 14.6673 31.1047 14.6673 30.0004V25.3348H17.3333V30.0004C17.3333 31.1047 18.2286 31.9999 19.3329 31.9999C20.4372 31.9999 21.3324 31.1047 21.3324 30.0004V25.2682C22.8843 24.9514 23.9988 23.5862 23.9985 22.0023V11.3382C23.9984 10.9701 23.7 10.6716 23.3319 10.6716Z" fill="white"/>
<path d="M20.8462 2.76954L22.4711 1.14592C22.7359 0.890166 22.7432 0.468265 22.4875 0.203452C22.2318 -0.0612987 21.8099 -0.0686094 21.545 0.187081C21.5395 0.192454 21.534 0.197891 21.5287 0.203452L19.6358 2.09638C17.3175 1.08931 14.6852 1.08931 12.3668 2.09638L10.474 0.20214C10.2092 -0.053613 9.78724 -0.0462397 9.53149 0.218511C9.28204 0.476825 9.28204 0.886292 9.53149 1.14454L11.1551 2.76948C9.17576 4.07917 7.99028 6.29871 8.00253 8.67209C8.00253 9.04019 8.30096 9.33862 8.66906 9.33862H23.3323C23.7004 9.33862 23.9988 9.04019 23.9988 8.67209C24.011 6.29877 22.8256 4.07923 20.8462 2.76954Z" fill="white"/>
<path d="M12.6677 6.67254C13.0358 6.67254 13.3342 6.37412 13.3342 6.00601C13.3342 5.63789 13.0358 5.33948 12.6677 5.33948C12.2996 5.33948 12.0012 5.63789 12.0012 6.00601C12.0012 6.37412 12.2996 6.67254 12.6677 6.67254Z" fill="#00283A"/>
<path d="M19.3328 6.67254C19.7009 6.67254 19.9994 6.37412 19.9994 6.00601C19.9994 5.63789 19.7009 5.33948 19.3328 5.33948C18.9647 5.33948 18.6663 5.63789 18.6663 6.00601C18.6663 6.37412 18.9647 6.67254 19.3328 6.67254Z" fill="#00283A"/>
</svg>
